<mxfile host="app.diagrams.net" modified="2023-09-24T14:15:02.725Z" agent="Mozilla/5.0 (Windows NT 10.0; Win64; x64) AppleWebKit/537.36 (KHTML, like Gecko) Chrome/117.0.0.0 Safari/537.36" etag="THAXnRJBkfZoWJkZ70nO" version="21.8.2" type="device">
  <diagram name="Page-1" id="2SI0OX8r4eWjSZy40Sfn">
    <mxGraphModel dx="819" dy="401" grid="1" gridSize="10" guides="1" tooltips="1" connect="1" arrows="1" fold="1" page="1" pageScale="1" pageWidth="827" pageHeight="1169" math="0" shadow="0">
      <root>
        <mxCell id="0" />
        <mxCell id="1" parent="0" />
        <mxCell id="MWSFb5kmvH6xcf6oEVto-11" style="edgeStyle=orthogonalEdgeStyle;rounded=0;orthogonalLoop=1;jettySize=auto;html=1;entryX=1.026;entryY=0.894;entryDx=0;entryDy=0;entryPerimeter=0;" parent="1" source="MWSFb5kmvH6xcf6oEVto-1" target="MWSFb5kmvH6xcf6oEVto-10" edge="1">
          <mxGeometry relative="1" as="geometry">
            <Array as="points" />
          </mxGeometry>
        </mxCell>
        <mxCell id="xo18x9fCw0vgYo9igPb7-4" style="edgeStyle=orthogonalEdgeStyle;rounded=0;orthogonalLoop=1;jettySize=auto;html=1;exitX=1;exitY=0.5;exitDx=0;exitDy=0;entryX=0;entryY=0.5;entryDx=0;entryDy=0;" edge="1" parent="1" source="MWSFb5kmvH6xcf6oEVto-1" target="xo18x9fCw0vgYo9igPb7-1">
          <mxGeometry relative="1" as="geometry" />
        </mxCell>
        <mxCell id="MWSFb5kmvH6xcf6oEVto-1" value="users" style="rounded=0;whiteSpace=wrap;html=1;fillColor=#d5e8d4;strokeColor=#82b366;" parent="1" vertex="1">
          <mxGeometry x="280" y="470" width="160" height="50" as="geometry" />
        </mxCell>
        <mxCell id="xo18x9fCw0vgYo9igPb7-3" style="edgeStyle=orthogonalEdgeStyle;rounded=0;orthogonalLoop=1;jettySize=auto;html=1;exitX=0.75;exitY=1;exitDx=0;exitDy=0;entryX=0.5;entryY=0;entryDx=0;entryDy=0;" edge="1" parent="1" source="MWSFb5kmvH6xcf6oEVto-2" target="xo18x9fCw0vgYo9igPb7-1">
          <mxGeometry relative="1" as="geometry" />
        </mxCell>
        <mxCell id="MWSFb5kmvH6xcf6oEVto-2" value="conversations" style="rounded=0;whiteSpace=wrap;html=1;fillColor=#dae8fc;strokeColor=#6c8ebf;" parent="1" vertex="1">
          <mxGeometry x="330" y="295" width="320" height="50" as="geometry" />
        </mxCell>
        <mxCell id="MWSFb5kmvH6xcf6oEVto-22" style="edgeStyle=orthogonalEdgeStyle;rounded=0;orthogonalLoop=1;jettySize=auto;html=1;" parent="1" source="MWSFb5kmvH6xcf6oEVto-10" target="MWSFb5kmvH6xcf6oEVto-2" edge="1">
          <mxGeometry relative="1" as="geometry">
            <Array as="points">
              <mxPoint x="260" y="320" />
              <mxPoint x="260" y="320" />
            </Array>
          </mxGeometry>
        </mxCell>
        <mxCell id="MWSFb5kmvH6xcf6oEVto-10" value="matches" style="rounded=0;whiteSpace=wrap;html=1;fillColor=#f8cecc;strokeColor=#b85450;" parent="1" vertex="1">
          <mxGeometry y="280" width="50" height="240" as="geometry" />
        </mxCell>
        <mxCell id="MWSFb5kmvH6xcf6oEVto-15" value="&lt;font style=&quot;font-size: 11px;&quot;&gt;Uses&lt;br style=&quot;border-color: var(--border-color);&quot;&gt;&lt;span style=&quot;background-color: rgb(255, 255, 255);&quot;&gt;users.User&lt;/span&gt;&lt;br style=&quot;border-color: var(--border-color);&quot;&gt;&lt;span style=&quot;background-color: rgb(255, 255, 255);&quot;&gt;type&lt;/span&gt;&lt;/font&gt;" style="rounded=0;whiteSpace=wrap;html=1;" parent="1" vertex="1">
          <mxGeometry x="550" y="370" width="70" height="60" as="geometry" />
        </mxCell>
        <mxCell id="MWSFb5kmvH6xcf6oEVto-16" value="&lt;font style=&quot;font-size: 11px;&quot;&gt;matches.UnmatchUsers()&lt;br style=&quot;border-color: var(--border-color);&quot;&gt;&lt;span style=&quot;background-color: rgb(255, 255, 255);&quot;&gt;calls&lt;/span&gt;&lt;br style=&quot;border-color: var(--border-color);&quot;&gt;&lt;span style=&quot;background-color: rgb(255, 255, 255);&quot;&gt;conversations.LeaveAllConversationsWithUser()&lt;/span&gt;&lt;/font&gt;" style="rounded=0;whiteSpace=wrap;html=1;" parent="1" vertex="1">
          <mxGeometry x="60" y="290" width="250" height="60" as="geometry" />
        </mxCell>
        <mxCell id="MWSFb5kmvH6xcf6oEVto-17" value="&lt;font style=&quot;font-size: 11px;&quot;&gt;users.BlockUser()&lt;br style=&quot;border-color: var(--border-color);&quot;&gt;calls&lt;br style=&quot;border-color: var(--border-color);&quot;&gt;matches.UnmatchUsers()&lt;/font&gt;" style="rounded=0;whiteSpace=wrap;html=1;" parent="1" vertex="1">
          <mxGeometry x="115" y="465" width="140" height="60" as="geometry" />
        </mxCell>
        <mxCell id="xo18x9fCw0vgYo9igPb7-1" value="userstypes" style="rounded=0;whiteSpace=wrap;html=1;fillColor=#fff2cc;strokeColor=#d6b656;" vertex="1" parent="1">
          <mxGeometry x="560" y="470" width="160" height="50" as="geometry" />
        </mxCell>
        <mxCell id="xo18x9fCw0vgYo9igPb7-6" value="&lt;font style=&quot;font-size: 11px;&quot;&gt;Uses&lt;br style=&quot;border-color: var(--border-color);&quot;&gt;&lt;span style=&quot;background-color: rgb(255, 255, 255);&quot;&gt;users.User&lt;/span&gt;&lt;br style=&quot;border-color: var(--border-color);&quot;&gt;&lt;span style=&quot;background-color: rgb(255, 255, 255);&quot;&gt;type&lt;/span&gt;&lt;/font&gt;" style="rounded=0;whiteSpace=wrap;html=1;" vertex="1" parent="1">
          <mxGeometry x="460" y="465" width="70" height="60" as="geometry" />
        </mxCell>
      </root>
    </mxGraphModel>
  </diagram>
</mxfile>
